<?xml version="1.0" standalone="no"?>
<!DOCTYPE svg PUBLIC "-//W3C//DTD SVG 20010904//EN"
 "http://www.w3.org/TR/2001/REC-SVG-20010904/DTD/svg10.dtd">
<svg version="1.0" xmlns="http://www.w3.org/2000/svg"
 width="512.000000pt" height="512.000000pt" viewBox="0 0 512.000000 512.000000"
 preserveAspectRatio="xMidYMid meet">
<metadata>
Created by potrace 1.14, written by Peter Selinger 2001-2017
</metadata>
<g transform="translate(0.000000,512.000000) scale(0.100000,-0.100000)"
fill="#000000" stroke="none">
<path d="M265 5106 c-108 -34 -186 -102 -232 -201 l-28 -60 0 -2285 0 -2285
33 -67 c40 -81 110 -148 190 -180 l57 -23 2276 0 2275 0 76 38 c88 43 128 85
172 177 l31 65 0 2275 0 2275 -23 57 c-32 80 -99 150 -180 190 l-67 33 -2270
2 c-1814 1 -2278 -1 -2310 -11z m953 -630 c74 -38 98 -105 63 -174 -12 -23
-21 -46 -21 -51 0 -13 148 -61 190 -61 19 0 53 5 74 11 53 15 118 3 150 -26
21 -19 26 -33 26 -70 0 -41 -5 -51 -47 -96 -72 -77 -272 -168 -441 -200 -49
-9 -65 -17 -71 -33 -11 -30 -31 -274 -31 -376 1 -58 5 -91 15 -104 13 -18 18
-15 92 44 43 34 107 80 144 101 141 84 364 134 424 95 28 -18 33 -36 10 -36
-8 0 -29 -13 -48 -29 -31 -28 -36 -29 -77 -20 -93 21 -229 -33 -327 -130 -85
-84 -135 -187 -158 -324 -9 -56 -38 -77 -105 -77 -88 0 -156 54 -192 149 -27
72 -22 138 32 406 27 138 50 259 50 271 0 19 -7 22 -68 27 -107 9 -177 40
-247 111 -59 59 -110 140 -99 158 12 20 57 6 87 -26 54 -56 176 -79 319 -60
l46 6 11 87 c6 48 11 126 11 174 0 74 -3 90 -20 107 -11 11 -29 20 -39 20 -28
0 -51 10 -51 23 0 23 55 80 94 98 50 23 164 26 204 5z m3298 -18 c56 -30 109
-84 130 -134 11 -27 14 -167 14 -764 0 -812 3 -769 -68 -844 -68 -71 -88 -76
-339 -76 -236 0 -230 -1 -217 48 6 22 8 22 188 22 212 0 246 10 293 81 l28 43
0 726 0 727 -29 41 c-16 23 -46 50 -70 62 -41 20 -59 20 -729 20 -460 0 -695
-3 -714 -11 -34 -13 -80 -55 -99 -91 -12 -22 -14 -123 -14 -575 l0 -547 -37
36 c-21 20 -48 41 -60 47 l-23 12 0 493 c0 525 1 537 49 605 28 39 94 82 149
97 37 10 207 13 772 11 l725 -2 51 -27z m-2315 -970 c63 -29 124 -79 145 -119
19 -37 18 -109 -1 -137 -9 -12 -22 -37 -30 -56 l-14 -34 74 -27 c69 -25 78
-26 123 -15 71 19 118 6 168 -43 71 -71 69 -172 -3 -257 -64 -75 -215 -162
-355 -206 l-58 -18 0 -184 c0 -101 3 -182 8 -180 4 2 81 40 172 85 258 128
358 155 575 156 163 1 227 -12 351 -73 59 -29 96 -55 131 -94 89 -97 119 -191
110 -346 -12 -215 -119 -383 -302 -470 -102 -49 -173 -63 -310 -63 -263 1
-441 106 -549 324 -25 52 -49 109 -52 127 -6 32 -6 32 35 32 38 0 42 -3 62
-42 34 -66 119 -143 206 -184 67 -33 86 -37 149 -37 62 0 83 5 137 32 244 119
301 446 104 591 -188 138 -477 75 -776 -169 l-44 -35 7 -81 c3 -44 16 -154 27
-245 25 -194 22 -286 -10 -354 -31 -63 -75 -94 -150 -107 -127 -23 -160 2
-190 140 -21 95 -46 148 -99 211 l-29 34 -86 -116 c-47 -63 -93 -118 -102
-122 -26 -10 -111 -7 -142 5 -94 35 -161 201 -134 330 24 109 61 149 137 149
35 0 36 -1 31 -30 -8 -38 0 -60 22 -60 24 0 170 88 349 210 l152 103 0 205 0
205 -47 -7 c-258 -35 -396 -6 -480 101 -33 41 -73 115 -73 134 0 12 43 9 154
-12 55 -10 91 -10 180 -1 98 11 250 42 262 55 8 8 6 391 -2 434 -15 82 -54
134 -119 156 -21 8 -40 18 -42 24 -7 20 57 81 100 97 60 22 160 15 228 -16z
m-341 -422 c0 -7 3 -34 6 -59 l6 -45 -38 -11 c-22 -6 -42 -11 -46 -11 -4 0 6
25 23 56 16 31 29 62 29 70 0 8 5 14 10 14 6 0 10 -6 10 -14z m1763 -48 c84
-40 165 -109 209 -177 21 -34 28 -57 28 -96 0 -73 -24 -146 -60 -180 -29 -28
-38 -30 -113 -33 -103 -4 -119 5 -217 123 -122 146 -209 199 -330 199 -43 1
-72 -7 -134 -37 -53 -25 -92 -37 -122 -37 -24 0 -44 4 -44 8 0 29 194 167 305
217 99 44 159 55 286 52 109 -3 119 -5 192 -39z m-573 -368 c0 -5 -8 -10 -17
-10 -15 0 -16 2 -3 10 19 12 20 12 20 0z m-1702 -40 l32 -39 -51 6 c-33 4 -53
2 -58 -5 -15 -25 -372 -44 -387 -21 -11 18 10 25 114 37 53 6 140 23 192 36
52 13 102 24 111 25 9 1 30 -17 47 -39z m-130 -404 c42 -22 72 -60 79 -99 5
-34 3 -37 -33 -54 -29 -13 -45 -31 -64 -68 -24 -48 -25 -57 -25 -247 0 -182
-1 -198 -19 -211 -16 -12 -21 -37 -32 -148 -21 -222 -15 -371 15 -369 3 1 41
29 85 64 43 35 112 83 153 107 71 40 80 42 161 45 48 1 94 2 102 3 8 1 41 -2
73 -5 51 -6 58 -9 63 -33 3 -14 7 -32 10 -38 4 -17 -1 -16 -36 2 -16 8 -51 20
-79 26 -97 21 -227 -31 -329 -130 -82 -81 -134 -188 -157 -324 -9 -56 -38 -77
-105 -77 -119 0 -208 107 -210 251 0 30 22 167 50 305 27 137 50 258 50 270 0
19 -7 22 -68 27 -106 9 -174 39 -246 111 -59 58 -111 140 -100 158 12 19 56 6
89 -27 57 -56 175 -78 317 -59 l46 6 11 87 c6 48 11 125 11 172 0 94 -15 129
-55 129 -33 0 -55 10 -55 25 0 24 53 77 95 96 49 23 164 25 203 5z m3283 -8
c53 -23 119 -87 140 -133 17 -38 19 -85 19 -775 0 -826 4 -775 -76 -852 -75
-72 -30 -68 -867 -68 l-753 0 -52 26 c-29 14 -65 42 -82 62 -57 69 -60 94 -60
443 l0 317 53 4 c28 3 55 3 60 1 4 -2 7 -150 7 -329 0 -352 0 -352 57 -406 15
-15 41 -32 56 -37 19 -8 254 -11 715 -11 653 0 689 1 729 19 26 12 52 35 70
62 l28 43 0 726 0 727 -28 40 c-15 22 -45 49 -66 61 -37 21 -49 22 -355 22
l-316 0 0 41 0 40 343 -3 c292 -3 347 -5 378 -20z m-1624 -109 c28 -17 33 -26
28 -43 -4 -11 -10 -53 -14 -93 -3 -39 -8 -73 -11 -75 -3 -2 -13 -10 -22 -17
-15 -11 -23 -10 -53 9 -33 20 -35 25 -35 73 0 59 12 108 35 143 19 29 28 30
72 3z m-725 -1049 c18 -53 13 -185 -10 -256 -85 -269 -424 -451 -928 -499
-203 -19 -329 -17 -329 5 0 11 24 17 102 26 397 47 731 217 828 420 46 97 58
220 30 299 -8 22 -15 40 -15 40 0 0 70 0 155 0 l155 0 12 -35z"/>
<path d="M1220 4162 c-17 -65 -30 -145 -25 -151 9 -8 166 73 176 90 11 21 3
27 -78 68 l-62 31 -11 -38z"/>
<path d="M2285 3058 c-8 -24 -26 -180 -22 -185 14 -14 147 100 147 126 0 13
-34 39 -73 56 -44 18 -46 18 -52 3z"/>
<path d="M1971 1829 c-115 -130 -107 -117 -85 -134 51 -40 105 -66 123 -60 30
9 42 69 39 181 l-3 96 -74 -83z"/>
</g>
</svg>
